<?xml version="1.0" standalone="no"?>
<!DOCTYPE svg PUBLIC "-//W3C//DTD SVG 1.1//EN" "http://www.w3.org/Graphics/SVG/1.1/DTD/svg11.dtd" >
<svg xmlns="http://www.w3.org/2000/svg">
<metadata>Generated by IcoMoon</metadata>
<defs>
<font id="rmhdidt" horiz-adv-x="1024">
<font-face units-per-em="1024" ascent="960" descent="-64" />
<missing-glyph horiz-adv-x="1024" />
<glyph unicode="&#x20;" horiz-adv-x="512" d="" />
<glyph unicode="&#xe900;" glyph-name="horizontal-rule" d="M660.918 502.884l241.866 0.353c22.543 0.033 40.837-23.818 40.863-53.274s-18.23-53.361-40.773-53.394l-117.599-0.172-0.003-0.348-124.355 0.169-383.892-0.561v1.083l-160.934 0.22c-24.102 0.031-43.622 23.936-43.594 53.391 0.026 29.455 19.589 53.307 43.692 53.274l544.73-0.742z" />
<glyph unicode="&#xe901;" glyph-name="drop-down" d="M512.886 271.502l-225.873 329.741h451.745l-225.873-329.741z" />
<glyph unicode="&#xe902;" glyph-name="unordered-list" d="M313.565 649.949h555.615c29.435 0 45.652 23.898 45.652 53.335 0 29.435-16.217 53.332-45.652 53.332h-555.615c-29.435 0-45.652-23.898-45.652-53.332 0-29.437 16.217-53.335 45.652-53.335zM312.264 394.399h555.615c29.435 0 45.652 23.898 45.652 53.335 0 29.435-16.217 53.332-45.652 53.332h-555.615c-29.435 0-45.652-23.898-45.652-53.332 0-29.437 16.217-53.335 45.652-53.335zM310.831 134.733h555.615c29.435 0 45.652 23.898 45.652 53.335 0 29.435-16.217 53.332-45.652 53.332h-555.615c-29.435 0-45.652-23.898-45.652-53.332 0-29.437 16.217-53.335 45.652-53.335zM232.051 704.125c0-38.881-31.52-70.401-70.401-70.401s-70.401 31.519-70.401 70.401c0 38.881 31.52 70.401 70.401 70.401s70.401-31.519 70.401-70.401zM232.051 446.927c0-38.881-31.52-70.401-70.401-70.401s-70.401 31.519-70.401 70.401c0 38.881 31.52 70.401 70.401 70.401s70.401-31.519 70.401-70.401zM232.051 191.899c0-38.881-31.52-70.401-70.401-70.401s-70.401 31.519-70.401 70.401c0 38.881 31.52 70.401 70.401 70.401s70.401-31.519 70.401-70.401z" />
<glyph unicode="&#xe903;" glyph-name="ordered-list" d="M230.061 632.949c0-2.688-0.299-5.077-0.597-6.869-0.299-2.091-0.597-3.584-1.195-4.779-0.299-0.896-1.195-1.792-1.792-2.389-0.597-0.299-1.493-0.597-2.389-0.597h-103.936c-0.896 0-1.493 0.299-2.389 0.597-0.597 0.597-1.195 1.493-1.792 2.389-0.299 1.195-0.896 2.688-1.195 4.779-0.299 1.792-0.299 4.181-0.299 6.869s0 5.077 0.299 7.168c0.299 1.792 0.597 3.285 1.195 4.48s1.195 2.091 1.792 2.389c0.597 0.597 1.493 0.896 2.389 0.896h34.944v122.752l-30.165-16.725c-2.389-0.896-4.181-1.792-5.376-1.792-1.493-0.299-2.688 0-3.584 0.597-0.597 0.896-1.195 2.389-1.493 4.48s-0.597 4.779-0.597 8.661c0 2.091 0 4.181 0.299 5.675 0 1.493 0.299 2.688 0.597 3.883 0.299 0.896 0.896 1.792 1.792 2.688 0.597 0.597 1.493 1.195 2.688 2.091l40.619 26.283c0.299 0.299 0.896 0.597 1.792 0.896 0.597 0.299 1.493 0.597 2.688 0.597s2.688 0.299 4.779 0.299c1.792 0 4.181 0 7.168 0 3.883 0 6.869 0 8.96-0.299 2.389 0 4.181-0.299 5.376-0.597s1.792-0.896 2.091-1.493c0.597-0.597 0.597-1.195 0.597-2.091v-155.904h30.763c0.896 0 1.792-0.299 2.389-0.896 0.896-0.299 1.493-1.195 2.091-2.389s0.896-2.688 1.195-4.48c0.299-2.091 0.299-4.48 0.299-7.168zM233.502 379.988c0-2.688-0.299-5.077-0.299-7.168-0.299-2.091-0.597-3.584-1.195-4.779-0.597-1.493-1.195-2.389-1.792-2.688-0.896-0.597-1.792-0.896-2.688-0.896h-108.715c-2.091 0-3.883 0.299-5.376 0.597s-2.688 1.195-3.883 2.389c-0.896 0.896-1.493 2.688-2.091 4.779-0.299 2.091-0.597 4.779-0.597 8.363 0 2.987 0 5.973 0.299 8.064 0.299 2.389 0.896 4.48 1.792 6.272 0.597 1.792 1.792 3.584 2.987 5.077 1.195 1.792 2.688 3.584 4.779 5.675l32.555 34.944c6.571 6.869 11.648 13.141 15.829 18.816 3.883 5.376 7.168 10.453 9.259 15.232 2.389 4.48 3.883 8.96 4.48 12.843 0.896 3.883 1.493 7.467 1.493 11.051 0 2.987-0.597 6.272-1.792 8.96-0.896 2.987-2.389 5.376-4.48 7.467-1.792 2.389-4.48 3.883-7.467 5.077s-6.571 1.792-10.453 1.792c-5.973 0-11.051-0.597-15.531-2.091-4.181-1.493-8.064-2.987-11.648-4.779-3.285-1.792-5.973-3.584-8.363-5.077-2.091-1.493-3.883-2.389-5.077-2.389-0.896 0-1.792 0.299-2.389 0.896s-1.195 1.792-1.493 2.987c-0.299 1.493-0.597 3.285-0.896 5.376-0.299 2.389-0.299 5.376-0.299 8.661 0 2.091 0 3.883 0 5.376 0.299 1.493 0.597 2.987 0.896 4.181 0.299 0.896 0.597 2.091 1.195 2.688 0.299 0.896 1.195 1.792 2.389 2.987s3.584 2.688 6.869 4.48c2.987 1.792 7.168 3.584 11.947 5.376 4.779 1.493 9.856 2.987 15.829 4.181 5.675 1.195 11.648 1.792 17.92 1.792 9.557 0 18.219-1.195 25.685-3.584 7.168-2.688 13.44-5.973 18.219-10.453s8.363-9.557 10.752-15.829c2.389-5.973 3.584-12.544 3.584-19.413 0-6.272-0.597-12.245-1.493-18.219-1.195-5.973-3.584-12.245-7.467-19.115-3.584-6.869-8.96-14.635-15.531-22.699-6.869-8.363-15.531-18.219-26.581-28.971l-22.101-22.699h74.368c0.896 0 1.792-0.299 2.688-0.896s1.493-1.493 2.091-2.688c0.597-1.195 0.896-2.688 1.195-4.779s0.597-4.48 0.597-7.168zM231.305 161.949c0-9.557-1.792-17.92-5.376-25.088s-8.661-13.44-14.933-18.219c-6.571-5.077-14.336-8.96-23.296-11.349-8.96-2.688-18.517-3.883-29.269-3.883-6.272 0-12.245 0.299-17.92 1.195-5.675 1.195-10.752 2.091-14.933 3.584-4.48 1.195-8.064 2.688-10.752 4.181-2.987 1.493-4.779 2.688-5.675 3.285-0.896 0.896-1.493 1.792-1.792 2.688-0.597 0.896-0.896 2.091-1.195 3.584-0.299 1.195-0.597 2.688-0.896 4.779 0 2.091 0 4.48 0 7.168 0 4.779 0.299 8.064 0.896 9.856 0.896 1.792 2.091 2.688 3.584 2.688 0.896 0 2.688-0.597 5.077-2.091 2.389-1.195 5.376-2.688 8.96-4.181 3.883-1.493 8.064-2.987 13.141-4.181s10.453-2.091 17.024-2.091c5.077 0 9.856 0.597 14.037 2.091 4.181 1.195 7.467 2.987 10.453 5.077 2.688 2.389 5.077 5.077 6.272 8.363 1.493 3.285 2.091 6.869 2.091 11.051s-0.597 8.363-2.389 11.648c-1.792 3.584-4.181 6.571-7.765 8.96-3.285 2.688-7.467 4.48-12.544 5.973-5.077 1.195-11.051 1.792-17.92 1.792h-16.427c-1.195 0-2.389 0.299-3.285 0.597s-1.493 1.195-2.091 2.091c-0.597 1.195-0.896 2.688-1.195 4.48s-0.299 4.48-0.299 7.467c0 2.688 0 5.077 0.299 6.869s0.597 3.285 1.195 4.181c0.597 0.896 1.195 1.493 2.091 2.091 0.597 0.299 1.792 0.597 2.987 0.597h16.427c5.675 0 10.453 0.597 14.933 1.792 4.48 1.493 8.064 3.285 11.051 5.675s5.077 5.376 6.869 8.96c1.493 3.285 2.091 7.168 2.091 11.349 0 3.285-0.299 6.272-1.493 8.96-1.195 2.987-2.688 5.376-4.779 7.467s-4.779 3.883-8.064 5.077c-3.285 1.195-7.168 1.792-11.648 1.792-5.077 0-9.856-0.896-14.336-2.389s-8.363-2.987-11.947-4.779c-3.584-1.792-6.571-3.584-8.96-5.077-2.688-1.493-4.48-2.389-5.675-2.389-0.597 0-1.493 0.299-2.091 0.597-0.299 0.299-0.896 0.896-1.195 1.792-0.597 1.195-0.896 2.389-0.896 4.48-0.299 1.792-0.299 4.181-0.299 7.168 0 2.389 0 4.181 0 5.973 0 1.493 0.299 2.987 0.597 3.883 0.299 1.195 0.597 2.091 1.195 2.987 0.299 0.597 1.195 1.493 2.091 2.389s2.987 2.389 5.973 4.181c2.987 1.792 6.869 3.584 11.349 5.376s9.856 3.285 15.829 4.48c5.973 1.195 12.544 1.792 19.413 1.792 9.259 0 17.323-1.195 24.192-3.285 7.168-2.091 13.141-5.077 17.92-9.259 4.779-3.883 8.363-8.96 11.051-14.635 2.389-5.973 3.584-12.544 3.584-20.011 0-5.675-0.597-11.051-2.091-16.128-1.493-4.779-3.584-9.259-6.571-13.141-2.688-3.883-6.272-7.168-10.453-9.856-4.181-2.987-9.259-4.779-14.635-6.272v-0.299c6.571-0.896 12.544-2.688 17.621-5.077 5.376-2.688 9.856-5.973 13.44-9.856s6.571-8.363 8.363-13.141c2.091-4.779 2.987-10.155 2.987-15.829zM313.565 649.949h555.615c29.435 0 45.652 23.898 45.652 53.335 0 29.435-16.217 53.332-45.652 53.332h-555.615c-29.435 0-45.652-23.898-45.652-53.332 0-29.437 16.217-53.335 45.652-53.335zM312.264 394.399h555.615c29.435 0 45.652 23.898 45.652 53.335 0 29.435-16.217 53.332-45.652 53.332h-555.615c-29.435 0-45.652-23.898-45.652-53.332 0-29.437 16.217-53.335 45.652-53.335zM310.831 134.733h555.615c29.435 0 45.652 23.898 45.652 53.335 0 29.435-16.217 53.332-45.652 53.332h-555.615c-29.435 0-45.652-23.898-45.652-53.332 0-29.437 16.217-53.335 45.652-53.335z" />
<glyph unicode="&#xe904;" glyph-name="link" d="M560.855 409.382c-2.486-0.079-5.005-0.049-7.542 0.082-2.076 23.176-11.72 47.242-23.183 58.015-11.628 10.929-16.945 11.86-37.985 11.128-0.108 8.788 0.852 17.61 2.767 25.764 6.359 27.059 18.086 57.521 35.487 87.204 39.153-3.305 58.337-11.305 84.449-35.843 27.487-25.83 41.636-59.197 45.885-99.064l0.090-0.847c1.836-17.792 1.713-36.869-0.064-57.142-2.314-26.432-7.967-51.451-17.582-76.163l-0.42-1.088c-17.864-46.049-49.27-91.149-97.61-142.592-74.691-79.485-151.608-134.776-227.064-146.143-65.646-9.892-120.156 0.937-160.074 38.449-39.921 37.514-54.264 85.798-48.471 151.936 6.656 76.017 56.282 145.477 130.972 224.963 50.34 53.573 74.102 81.262 108.795 103.724-13.522-29.169-11.745-47.803-14.231-76.165-1.72-19.656-1.664-37.734 0.364-54.413-14.794-10.632-18.842-17.969-32.276-32.264-42.726-45.468-58.816-96.192-69.624-142.195-6.636-28.237-1.802-64.512 14.31-79.652 16.11-15.14 57.277-26.040 85.048-17.664 45.243 13.647 96.632 50.752 139.359 96.22 14.572 15.506 27.233 31.027 37.924 46.641 11.676-0.55 23.836-0.187 36.449 1.019-12.613-1.206-24.773-1.569-36.449-1.019 20.956 29.978 34.819 60.119 41.943 90.435 1.912 8.146 2.235 17.382 1.193 26.757 2.537-0.131 5.056-0.161 7.542-0.082zM550.943 293.737c0 0 0.484 0.054 0.484 0.054l-0.484-0.054zM557.046 294.467c-0.878-0.113-1.754-0.223-2.624-0.328l0.873 0.105c0.581 0.074 1.165 0.146 1.751 0.223zM380.024 572.244c22.707 49.055 59.679 98.97 106.501 148.797 74.691 79.485 133.688 124.536 209.144 135.903 65.649 9.892 125.276-0.937 165.194-38.449 39.921-37.514 51.704-90.918 45.914-157.056-6.659-76.017-40.924-140.357-115.612-219.843-48.707-51.832-80.44-90.816-130.068-116.521 9.615 24.712 10.148 44.611 12.462 71.043 1.805 20.595 1.902 39.954-0.026 57.989 20.037 14.932 31.875 32.589 49.859 51.727 42.726 45.468 63.936 93.632 74.744 139.635 6.636 28.237-5.878 69.632-21.988 84.772-16.113 15.14-49.6 20.92-77.371 12.544-45.243-13.647-96.632-40.512-139.359-85.98-17.595-18.724-32.41-39.209-44.38-60.111-17.4-29.683-29.128-60.145-35.487-87.204-1.915-8.154-2.875-16.975-2.767-25.764-8.125-0.136-16.297-1.372-24.026-3.702-5.33-1.61-10.749-3.402-16.225-5.386l1.492 0.538c4.974 1.774 9.889 3.387 14.733 4.849 7.729 2.33 15.9 3.566 24.026 3.702-0.136-21.658 5.619-43.121 17.078-53.888 11.604-10.906 20.851-17.052 44.091-17.815 1.042-9.375 0.719-18.611-1.193-26.757-7.124-30.316-20.987-60.457-41.943-90.435-41.951 1.756-62.385 12.38-90.793 39.073-28.055 26.363-43.479 58.048-48.108 97.521 0.499 0.371 0.996 0.737 1.498 1.103l-0.748-0.55c-0.251-0.184-0.502-0.369-0.75-0.553-2.028 16.678-2.084 34.757-0.364 54.413 2.486 28.362 10.949 57.236 24.471 86.405zM561.444 295.066v0 0zM573.955 297.185c-2.862-0.573-5.724-1.085-8.581-1.533 2.86 0.448 5.722 0.96 8.581 1.533zM578.988 298.258c-0.973-0.218-1.946-0.43-2.916-0.635 0.973 0.205 1.946 0.417 2.916 0.635zM581.353 298.806v0 0zM588.598 300.654c-1.992-0.543-3.983-1.057-5.972-1.541 1.989 0.484 3.981 0.998 5.972 1.541zM589.993 301.038v0 0zM593.697 302.108l-0.351-0.105c0.527 0.156 1.057 0.315 1.587 0.476l-1.236-0.371zM595.446 302.636c0.653 0.2 1.308 0.402 1.958 0.607l-1.236-0.387-0.722-0.22zM568.187 409.948c-2.322-0.289-4.692-0.474-7.096-0.556 2.404 0.082 4.774 0.266 7.096 0.556zM572.902 410.696c-0.279-0.054-0.558-0.108-0.84-0.156 0.282 0.051 0.563 0.102 0.84 0.156zM573.673 410.852v0zM577.444 411.753c-0.494-0.136-0.991-0.264-1.492-0.387l0.376 0.092c0.499 0.125 0.993 0.259 1.485 0.397l-0.369-0.102zM580.856 412.774c-0.637-0.202-1.277-0.399-1.912-0.591 0.635 0.192 1.272 0.389 1.912 0.591zM584.468 413.957l-0.074-0.026c0.23 0.079 0.463 0.159 0.696 0.238l-0.622-0.212zM587.579 415.045v0 0zM595.108 417.94v0zM421.289 468.667c-1.966-0.829-3.937-1.684-5.911-2.563 1.976 0.881 3.948 1.733 5.911 2.563zM432.755 473.242c-3.241-1.221-6.5-2.509-9.772-3.866 3.272 1.357 6.531 2.647 9.772 3.866zM435.039 474.094v0 0zM435.991 591.721c0 0 1.060 0.22 1.060 0.22l-1.060-0.22zM461.294 595.727v0 0zM465.492 596.175v0 0zM511.506 596.982c-12.324 0.909-25.091 0.847-38.175-0.12 13.087 0.968 25.851 1.029 38.175 0.12z" />
<glyph unicode="&#xe905;" glyph-name="clear" d="M510.712 929.892c265.546 0 481.167-216.164 481.167-482.455s-215.621-482.455-481.167-482.455c-265.546 0-481.167 216.164-481.167 482.455s215.621 482.455 481.167 482.455zM229.629 635.569c-35.912-53.827-56.863-118.546-56.863-188.132 0-187.057 151.411-338.952 337.946-338.952 69.427 0 133.99 21.043 187.702 57.116l-468.785 469.967zM795.361 264.763c33.728 52.726 53.297 115.428 53.297 182.674 0 187.057-151.411 338.952-337.946 338.952-67.098 0-129.649-19.651-182.264-53.537l466.913-468.088z" />
<glyph unicode="&#xe906;" glyph-name="subscript" d="M715.161 181.757c5.76-10.56 9.6-19.2 11.52-25.92 0.96-6.72 0-11.52-3.84-15.36-3.84-2.88-10.56-4.8-20.16-5.76s-23.040-1.92-41.28-1.92c-14.4 0-25.92 0-34.56 0.96s-14.4 1.92-20.16 2.88c-4.8 1.92-7.68 3.84-9.6 5.76-2.88 2.88-4.8 5.76-5.76 9.6l-114.24 218.88-113.28-218.88c-1.92-3.84-3.84-6.72-6.72-9.6-1.92-1.92-4.8-3.84-10.56-5.76-4.8-0.96-11.52-1.92-19.2-2.88-8.64-0.96-20.16-0.96-34.56-0.96-16.32 0-28.8 0.96-37.44 1.92s-15.36 2.88-18.24 5.76c-2.88 3.84-3.84 8.64-1.92 15.36s5.76 15.36 11.52 25.92l145.92 264.96-135.36 248.64c-5.76 11.52-9.6 21.12-11.52 27.84s-0.96 11.52 1.92 14.4c3.84 3.84 10.56 5.76 20.16 6.72 9.6 0 24 0.96 41.28 0.96 14.4 0 26.88-0.96 35.52-0.96 8.64-0.96 15.36-1.92 20.16-2.88 4.8-1.92 8.64-3.84 10.56-5.76 1.92-2.88 3.84-5.76 5.76-9.6l106.56-200.64 103.68 200.64c1.92 3.84 3.84 6.72 5.76 9.6 1.92 1.92 4.8 3.84 9.6 5.76 4.8 0.96 10.56 1.92 19.2 2.88 7.68 0 18.24 0.96 32.64 0.96 15.36 0 27.84-0.96 37.44-0.96 8.64-0.96 14.4-2.88 18.24-6.72s4.8-8.64 2.88-15.36c-1.92-6.72-5.76-15.36-10.56-26.88l-135.36-246.72 144-266.88zM862.211 57.178c0-2.304-0.256-4.352-0.256-6.144-0.256-1.792-0.512-3.072-1.024-4.096-0.512-1.28-1.024-2.048-1.536-2.304-0.768-0.512-1.536-0.768-2.304-0.768h-93.184c-1.792 0-3.328 0.256-4.608 0.512s-2.304 1.024-3.328 2.048c-0.768 0.768-1.28 2.304-1.792 4.096-0.256 1.792-0.512 4.096-0.512 7.168 0 2.56 0 5.12 0.256 6.912 0.256 2.048 0.768 3.84 1.536 5.376 0.512 1.536 1.536 3.072 2.56 4.352 1.024 1.536 2.304 3.072 4.096 4.864l27.904 29.952c5.632 5.888 9.984 11.264 13.568 16.128 3.328 4.608 6.144 8.96 7.936 13.056 2.048 3.84 3.328 7.68 3.84 11.008 0.768 3.328 1.28 6.4 1.28 9.472 0 2.56-0.512 5.376-1.536 7.68-0.768 2.56-2.048 4.608-3.84 6.4-1.536 2.048-3.84 3.328-6.4 4.352s-5.632 1.536-8.96 1.536c-5.12 0-9.472-0.512-13.312-1.792-3.584-1.28-6.912-2.56-9.984-4.096-2.816-1.536-5.12-3.072-7.168-4.352-1.792-1.28-3.328-2.048-4.352-2.048-0.768 0-1.536 0.256-2.048 0.768s-1.024 1.536-1.28 2.56c-0.256 1.28-0.512 2.816-0.768 4.608-0.256 2.048-0.256 4.608-0.256 7.424 0 1.792 0 3.328 0 4.608 0.256 1.28 0.512 2.56 0.768 3.584 0.256 0.768 0.512 1.792 1.024 2.304 0.256 0.768 1.024 1.536 2.048 2.56s3.072 2.304 5.888 3.84c2.56 1.536 6.144 3.072 10.24 4.608 4.096 1.28 8.448 2.56 13.568 3.584 4.864 1.024 9.984 1.536 15.36 1.536 8.192 0 15.616-1.024 22.016-3.072 6.144-2.304 11.52-5.12 15.616-8.96s7.168-8.192 9.216-13.568c2.048-5.12 3.072-10.752 3.072-16.64 0-5.376-0.512-10.496-1.28-15.616-1.024-5.12-3.072-10.496-6.4-16.384-3.072-5.888-7.68-12.544-13.312-19.456-5.888-7.168-13.312-15.616-22.784-24.832l-18.944-19.456h63.744c0.768 0 1.536-0.256 2.304-0.768s1.28-1.28 1.792-2.304c0.512-1.024 0.768-2.304 1.024-4.096s0.512-3.84 0.512-6.144z" />
<glyph unicode="&#xe907;" glyph-name="superscript" d="M715.161 181.757c5.76-10.56 9.6-19.2 11.52-25.92 0.96-6.72 0-11.52-3.84-15.36-3.84-2.88-10.56-4.8-20.16-5.76s-23.040-1.92-41.28-1.92c-14.4 0-25.92 0-34.56 0.96s-14.4 1.92-20.16 2.88c-4.8 1.92-7.68 3.84-9.6 5.76-2.88 2.88-4.8 5.76-5.76 9.6l-114.24 218.88-113.28-218.88c-1.92-3.84-3.84-6.72-6.72-9.6-1.92-1.92-4.8-3.84-10.56-5.76-4.8-0.96-11.52-1.92-19.2-2.88-8.64-0.96-20.16-0.96-34.56-0.96-16.32 0-28.8 0.96-37.44 1.92s-15.36 2.88-18.24 5.76c-2.88 3.84-3.84 8.64-1.92 15.36s5.76 15.36 11.52 25.92l145.92 264.96-135.36 248.64c-5.76 11.52-9.6 21.12-11.52 27.84s-0.96 11.52 1.92 14.4c3.84 3.84 10.56 5.76 20.16 6.72 9.6 0 24 0.96 41.28 0.96 14.4 0 26.88-0.96 35.52-0.96 8.64-0.96 15.36-1.92 20.16-2.88 4.8-1.92 8.64-3.84 10.56-5.76 1.92-2.88 3.84-5.76 5.76-9.6l106.56-200.64 103.68 200.64c1.92 3.84 3.84 6.72 5.76 9.6 1.92 1.92 4.8 3.84 9.6 5.76 4.8 0.96 10.56 1.92 19.2 2.88 7.68 0 18.24 0.96 32.64 0.96 15.36 0 27.84-0.96 37.44-0.96 8.64-0.96 14.4-2.88 18.24-6.72s4.8-8.64 2.88-15.36c-1.92-6.72-5.76-15.36-10.56-26.88l-135.36-246.72 144-266.88zM862.211 679.258c0-2.304-0.256-4.352-0.256-6.144-0.256-1.792-0.512-3.072-1.024-4.096-0.512-1.28-1.024-2.048-1.536-2.304-0.768-0.512-1.536-0.768-2.304-0.768h-93.184c-1.792 0-3.328 0.256-4.608 0.512s-2.304 1.024-3.328 2.048c-0.768 0.768-1.28 2.304-1.792 4.096-0.256 1.792-0.512 4.096-0.512 7.168 0 2.56 0 5.12 0.256 6.912 0.256 2.048 0.768 3.84 1.536 5.376 0.512 1.536 1.536 3.072 2.56 4.352 1.024 1.536 2.304 3.072 4.096 4.864l27.904 29.952c5.632 5.888 9.984 11.264 13.568 16.128 3.328 4.608 6.144 8.96 7.936 13.056 2.048 3.84 3.328 7.68 3.84 11.008 0.768 3.328 1.28 6.4 1.28 9.472 0 2.56-0.512 5.376-1.536 7.68-0.768 2.56-2.048 4.608-3.84 6.4-1.536 2.048-3.84 3.328-6.4 4.352s-5.632 1.536-8.96 1.536c-5.12 0-9.472-0.512-13.312-1.792-3.584-1.28-6.912-2.56-9.984-4.096-2.816-1.536-5.12-3.072-7.168-4.352-1.792-1.28-3.328-2.048-4.352-2.048-0.768 0-1.536 0.256-2.048 0.768s-1.024 1.536-1.28 2.56c-0.256 1.28-0.512 2.816-0.768 4.608-0.256 2.048-0.256 4.608-0.256 7.424 0 1.792 0 3.328 0 4.608 0.256 1.28 0.512 2.56 0.768 3.584 0.256 0.768 0.512 1.792 1.024 2.304 0.256 0.768 1.024 1.536 2.048 2.56s3.072 2.304 5.888 3.84c2.56 1.536 6.144 3.072 10.24 4.608 4.096 1.28 8.448 2.56 13.568 3.584 4.864 1.024 9.984 1.536 15.36 1.536 8.192 0 15.616-1.024 22.016-3.072 6.144-2.304 11.52-5.12 15.616-8.96s7.168-8.192 9.216-13.568c2.048-5.12 3.072-10.752 3.072-16.64 0-5.376-0.512-10.496-1.28-15.616-1.024-5.12-3.072-10.496-6.4-16.384-3.072-5.888-7.68-12.544-13.312-19.456-5.888-7.168-13.312-15.616-22.784-24.832l-18.944-19.456h63.744c0.768 0 1.536-0.256 2.304-0.768s1.28-1.28 1.792-2.304c0.512-1.024 0.768-2.304 1.024-4.096s0.512-3.84 0.512-6.144z" />
<glyph unicode="&#xe908;" glyph-name="code-snippet" d="M459.744 247.046c0-12.288-1.024-22.528-2.048-28.672-1.024-7.168-2.048-12.288-4.096-15.36s-5.12-4.096-8.192-4.096c-3.072 0-7.168 2.048-12.288 4.096l-384 191.488c-4.096 2.048-8.192 8.192-10.24 16.384s-3.072 21.504-3.072 37.888c0 9.216 1.024 16.384 1.024 22.528 1.024 7.168 2.048 12.288 3.072 16.384s2.048 7.168 4.096 10.24c2.048 2.048 4.096 4.096 6.144 5.12l382.976 190.464c9.216 5.12 16.384 4.096 20.48-3.072 4.096-6.144 6.144-19.456 6.144-39.936 0-13.312 0-23.552-1.024-31.744 0-8.192-1.024-14.336-3.072-19.456-1.024-4.096-3.072-8.192-5.12-10.24s-5.12-3.072-9.216-5.12l-288.768-135.168 282.624-131.072c5.12-2.048 9.216-5.12 12.288-7.168s6.144-6.144 7.168-11.264c2.048-4.096 3.072-11.264 4.096-19.456 0-8.192 1.024-18.432 1.024-32.768zM987.152 447.75c0-9.216 0-16.384-1.024-22.528s-2.048-12.288-3.072-16.384c-1.024-4.096-2.048-7.168-4.096-10.24-2.048-2.048-4.096-4.096-6.144-5.12l-384-190.464c-4.096-2.048-8.192-3.072-12.288-2.048-3.072 0-5.12 2.048-8.192 5.12-2.048 3.072-3.072 8.192-4.096 14.336-1.024 7.168-1.024 15.36-1.024 24.576 0 14.336 0 24.576 1.024 32.768 0 8.192 1.024 14.336 2.048 19.456 2.048 4.096 3.072 8.192 6.144 10.24 2.048 2.048 5.12 4.096 9.216 5.12l287.744 135.168-282.624 131.072c-5.12 2.048-9.216 5.12-12.288 7.168s-6.144 6.144-7.168 11.264c-2.048 4.096-3.072 11.264-3.072 19.456-1.024 8.192-1.024 18.432-1.024 32.768 0 12.288 0 22.528 1.024 28.672 1.024 7.168 2.048 12.288 4.096 15.36 3.072 3.072 5.12 4.096 8.192 4.096 4.096 0 8.192-2.048 12.288-4.096l384-191.488c4.096-2.048 8.192-7.168 10.24-16.384 3.072-8.192 4.096-21.504 4.096-37.888z" />
<glyph unicode="&#xe909;" glyph-name="code" d="M455.952 48.902c0-9.216-1.024-16.384-2.048-21.504 0-5.12-2.048-10.24-3.072-13.312-2.048-3.072-4.096-6.144-6.144-7.168-2.048-2.048-5.12-3.072-7.168-4.096-8.192-2.048-15.36-3.072-22.528-4.096-7.168 0-14.336-1.024-23.552-1.024-26.624 0-48.128 5.12-65.536 13.312s-30.72 20.48-40.96 35.84c-10.24 16.384-18.432 35.84-22.528 59.392-4.096 24.576-6.144 55.296-6.144 93.184v86.016c0 21.504-1.024 37.888-4.096 50.176-2.048 12.288-6.144 23.552-12.288 32.768-5.12 9.216-12.288 17.408-21.504 23.552s-19.456 10.24-32.768 12.288c-3.072 1.024-6.144 2.048-8.192 4.096s-4.096 5.12-6.144 8.192c-1.024 3.072-3.072 8.192-3.072 14.336-1.024 6.144-2.048 13.312-2.048 21.504 0 9.216 1.024 17.408 1.024 23.552 1.024 6.144 2.048 10.24 4.096 14.336 1.024 4.096 3.072 6.144 5.12 8.192 2.048 1.024 5.12 2.048 8.192 3.072 23.552 3.072 40.96 14.336 53.248 33.792s18.432 48.128 18.432 84.992v64.512c0 37.888 2.048 69.632 6.144 93.184s12.288 44.032 22.528 60.416c10.24 15.36 24.576 27.648 41.984 35.84s38.912 12.288 64.512 12.288c9.216 0 16.384 0 23.552-1.024s14.336-2.048 21.504-4.096c3.072 0 6.144-1.024 8.192-3.072 2.048-1.024 4.096-4.096 6.144-7.168 1.024-3.072 3.072-8.192 3.072-13.312 1.024-6.144 2.048-13.312 2.048-21.504 0-9.216-1.024-16.384-2.048-21.504-1.024-6.144-2.048-10.24-4.096-14.336-1.024-3.072-4.096-6.144-6.144-7.168-3.072-2.048-5.12-3.072-8.192-3.072h-18.432c-8.192 0-15.36-2.048-20.48-5.12-6.144-2.048-10.24-7.168-13.312-14.336-4.096-7.168-6.144-17.408-8.192-29.696-1.024-12.288-2.048-30.72-2.048-56.32v-62.464c0-25.6-2.048-47.104-5.12-64.512-4.096-17.408-10.24-32.768-18.432-47.104-8.192-13.312-18.432-25.6-31.744-35.84-12.288-10.24-28.672-17.408-48.128-21.504 19.456-4.096 35.84-11.264 48.128-21.504 13.312-10.24 23.552-22.528 31.744-36.864 8.192-13.312 14.336-29.696 18.432-47.104 3.072-17.408 5.12-37.888 5.12-63.488v-83.968c0-25.6 1.024-44.032 2.048-56.32 2.048-12.288 4.096-22.528 7.168-29.696s7.168-11.264 12.288-14.336c4.096-3.072 10.24-5.12 18.432-5.12h18.432c4.096-1.024 8.192-2.048 11.264-3.072 4.096-1.024 6.144-4.096 8.192-7.168 2.048-4.096 3.072-8.192 4.096-14.336 0-5.12 1.024-12.288 1.024-21.504zM859.152 454.406c0-9.216 0-16.384-1.024-22.528s-2.048-11.264-3.072-14.336c-2.048-4.096-4.096-7.168-6.144-8.192-2.048-2.048-5.12-3.072-8.192-3.072-12.288-2.048-23.552-7.168-31.744-14.336-9.216-8.192-16.384-18.432-22.528-30.72s-10.24-25.6-13.312-40.96c-3.072-15.36-4.096-33.792-4.096-56.32v-64.512c0-37.888-2.048-68.608-6.144-92.16-4.096-24.576-11.264-44.032-21.504-60.416-11.264-15.36-24.576-27.648-41.984-35.84s-38.912-13.312-65.536-13.312c-8.192 0-15.36 1.024-22.528 2.048s-15.36 2.048-23.552 3.072c-2.048 1.024-5.12 2.048-7.168 4.096-2.048 1.024-4.096 4.096-5.12 7.168-2.048 3.072-3.072 8.192-4.096 13.312s-2.048 12.288-2.048 21.504c0 8.192 1.024 15.36 2.048 21.504 1.024 5.12 2.048 10.24 4.096 13.312 2.048 4.096 4.096 7.168 6.144 8.192 3.072 1.024 5.12 2.048 8.192 3.072h18.432c8.192 0 15.36 2.048 21.504 4.096 5.12 3.072 9.216 8.192 13.312 15.36 3.072 7.168 6.144 17.408 7.168 29.696 2.048 12.288 2.048 30.72 2.048 56.32v62.464c0 25.6 2.048 47.104 6.144 67.584 3.072 19.456 9.216 37.888 17.408 54.272 8.192 17.408 18.432 31.744 31.744 44.032s28.672 21.504 48.128 25.6c-19.456 4.096-34.816 10.24-48.128 17.408-13.312 8.192-23.552 17.408-31.744 28.672s-14.336 24.576-17.408 39.936c-4.096 14.336-6.144 34.816-6.144 60.416v83.968c0 25.6 0 44.032-2.048 56.32-1.024 12.288-4.096 21.504-6.144 28.672-3.072 8.192-7.168 13.312-12.288 15.36-5.12 3.072-11.264 5.12-18.432 5.12h-18.432c-5.12 0-9.216 1.024-12.288 3.072-3.072 1.024-6.144 3.072-8.192 7.168-2.048 3.072-3.072 7.168-4.096 13.312 0 6.144-1.024 13.312-1.024 22.528 0 8.192 1.024 15.36 1.024 21.504 1.024 5.12 3.072 10.24 4.096 13.312 2.048 3.072 4.096 6.144 7.168 7.168 2.048 2.048 4.096 3.072 7.168 3.072 8.192 2.048 15.36 4.096 22.528 4.096 7.168 1.024 14.336 1.024 22.528 1.024 26.624 0 48.128-4.096 65.536-12.288s31.744-20.48 41.984-35.84c10.24-16.384 17.408-35.84 21.504-60.416 4.096-23.552 6.144-54.272 6.144-93.184v-86.016c0-20.48 1.024-35.84 4.096-46.080s7.168-18.432 12.288-24.576c5.12-7.168 12.288-12.288 21.504-16.384s20.48-7.168 32.768-9.216c3.072-1.024 6.144-2.048 8.192-4.096 2.048-1.024 4.096-4.096 6.144-8.192 1.024-3.072 3.072-8.192 4.096-13.312 0-6.144 1.024-13.312 1.024-22.528z" />
<glyph unicode="&#xe90a;" glyph-name="strike" d="M384.896 474.79c-14.231 9.897-27.072 20.452-38.52 31.662-16.668 16.32-29.775 34.808-39.324 55.468-9.549 20.662-14.323 44.879-14.323 72.658 0 34.028 7.465 63.629 22.397 88.801 14.93 25.172 34.547 45.921 58.854 62.239 24.305 16.32 51.996 28.472 83.072 36.46 31.076 7.985 62.761 11.978 95.053 11.978 73.61 0 131.016-9.948 164.695-27.656v-69.007c-38.945 18.964-104.453 17.498-173.55 17.498-19.098 0-38.195-1.997-57.293-5.99-19.095-3.994-36.109-10.504-51.041-19.53-14.93-9.029-27.082-20.662-36.457-34.898-9.375-14.234-14.062-31.596-14.062-52.083 0-19.095 3.558-35.589 10.675-49.477 7.119-13.891 17.623-26.563 31.511-38.021s30.817-22.569 50.783-33.334c19.963-10.765 42.967-22.569 69.010-35.418 7.552-3.727 14.994-7.508 22.326-11.348h226.632v-54.167h-138.153c10.107-7.828 19.528-16.026 28.257-24.589 18.056-17.708 32.379-37.325 42.97-58.854 10.591-21.527 15.885-46.18 15.885-73.958 0-36.805-7.204-67.968-21.614-93.489s-33.856-46.267-58.335-62.239c-24.479-15.972-52.69-27.517-84.634-34.637-31.946-7.117-65.626-10.675-101.043-10.675-11.804 0-26.388 0.955-43.75 2.865-17.359 1.91-35.069 4.687-53.125 8.333s-35.156 8.159-51.302 13.54c-16.143 5.384-29.079 11.372-38.802 17.969l1.29 80.671c11.804-10.417 24.666-14.080 41.16-22.415 16.492-8.333 31.278-7.634 49.505-13.363 18.23-5.729 39.122-6.292 57.526-9.418 18.401-3.126 35.415 0.466 51.041 0.466 53.819 0 94.011 9.981 120.573 29.947s39.844 48.699 39.844 86.198c0 20.14-4.429 37.673-13.281 52.605-8.855 14.93-21.094 28.557-36.721 40.883-15.624 12.326-34.115 24.133-55.468 35.418-20.823 11.003-43.213 22.584-67.172 34.744h-251.318v54.167h156.229z" />
<glyph unicode="&#xe90b;" glyph-name="underline" d="M781.304 399.039c0-200.705-91.136-302.081-272.383-302.081-174.080 0-261.119 97.28-261.119 290.817v438.274h83.968v-433.154c0-146.433 62.464-220.161 186.368-220.161 119.808 0 179.2 70.656 179.2 212.993v440.322h83.968v-427.010zM162.81 50.264h703.499v-52.001h-703.499v52.001z" />
<glyph unicode="&#xe90c;" glyph-name="DropdownDownArrow" d="M543.665 232.612l409.6 358.4c19.971 17.477 21.998 47.88 4.524 67.853-17.477 19.971-47.88 21.998-67.853 4.524l-409.6-358.4c-19.971-17.477-21.998-47.88-4.524-67.853 17.477-19.971 47.88-21.998 67.853-4.524zM543.665 304.988l-409.6 358.4c-19.973 17.475-50.376 15.447-67.853-4.524-17.475-19.973-15.447-50.376 4.524-67.853l409.6-358.4c19.973-17.475 50.376-15.447 67.853 4.524 17.475 19.973 15.447 50.376-4.524 67.853z" />
<glyph unicode="&#xe90d;" glyph-name="UpArrow" d="M512.015 918.474h0.061c7.718-0.008 15.455-1.861 22.497-5.609l0.11-0.059 0.064-0.033c3.328-1.784 6.482-3.983 9.38-6.595l409.137-357.99c19.971-17.477 21.998-47.88 4.524-67.853-17.477-19.971-47.88-21.998-67.853-4.524l-329.851 288.622v-739.914c0-27.356-21.545-49.564-48.084-49.564s-48.084 22.208-48.084 49.564v739.914l-329.851-288.622c-19.973-17.475-50.376-15.447-67.853 4.524-17.475 19.973-15.447 50.376 4.524 67.853l409.137 357.99c2.898 2.611 6.054 4.81 9.38 6.595l0.064 0.033 0.11 0.059c7.040 3.748 14.779 5.601 22.497 5.609h0.092z" />
<glyph unicode="&#xe90e;" glyph-name="DownArrow" d="M463.916 884.273v-844.39c0-27.356 21.545-49.563 48.084-49.563s48.084 22.207 48.084 49.563v844.39c0 27.356-21.545 49.563-48.084 49.563s-48.084-22.207-48.084-49.563zM543.665-25.948l409.6 358.4c19.971 17.477 21.998 47.88 4.524 67.853-17.477 19.971-47.88 21.998-67.853 4.524l-409.6-358.4c-19.971-17.477-21.998-47.88-4.524-67.853 17.477-19.971 47.88-21.998 67.853-4.524zM543.665 46.428l-409.6 358.4c-19.973 17.475-50.376 15.447-67.853-4.524-17.475-19.973-15.447-50.376 4.524-67.853l409.6-358.4c19.973-17.475 50.376-15.447 67.853 4.524 17.475 19.973 15.447 50.376-4.524 67.853z" />
<glyph unicode="&#xe90f;" glyph-name="undo" d="M456.534 389.271v-146.046c0-8.629-5.197-16.444-13.17-19.701-7.972-3.338-17.148-1.547-23.249 4.559l-255.999 256.028c-8.331 8.304-8.331 21.817 0 30.202l255.999 255.947c6.102 6.106 15.277 7.978 23.249 4.64 7.972-3.256 13.17-11.071 13.17-19.701v-144.825c48.856-0.57 167.501-8.955 262.793-71.476 50.347-32.97 85.335-104.202 107.607-178.772 31.76-106.237 39.154-217.929 39.154-217.929 0.684-10.339-6.15-19.619-16.206-22.143-10.055-2.442-20.431 2.686-24.604 12.13 0 0-74.237 170.224-195.401 235.513-22.617 12.211-57.181 17.503-90.372 20.108-32.36 2.524-63.598 2.117-82.97 1.465zM413.866 703.669l-204.495-204.497 204.495-204.497v114.948c0 11.153 8.643 20.433 19.804 21.247 0 0 52.983 3.826 109.149-0.57 39.509-3.094 80.385-10.502 107.305-24.992 67.831-36.634 122.471-103.063 159.582-159.071-5.586 31.505-13.254 66.917-23.654 101.679-19.165 64.15-46.806 126.915-90.133 155.326-111.93 73.43-259.423 64.231-259.423 64.231-5.871-0.326-11.63 1.791-15.915 5.78-4.285 4.070-6.715 9.688-6.715 15.549v114.867z" />
<glyph unicode="&#xe910;" glyph-name="redo" d="M567.466 389.271v-146.046c0-8.629 5.197-16.444 13.17-19.701 7.972-3.338 17.148-1.547 23.249 4.559l255.999 256.028c8.331 8.304 8.331 21.817 0 30.202l-255.999 255.947c-6.102 6.106-15.277 7.978-23.249 4.64-7.972-3.256-13.17-11.071-13.17-19.701v-144.825c-48.856-0.57-167.501-8.955-262.793-71.476-50.347-32.97-85.335-104.202-107.607-178.772-31.76-106.237-39.154-217.929-39.154-217.929-0.684-10.339 6.15-19.619 16.206-22.143 10.055-2.442 20.431 2.686 24.604 12.13 0 0 74.237 170.224 195.401 235.513 22.617 12.211 57.181 17.503 90.372 20.108 32.36 2.524 63.598 2.117 82.97 1.465zM610.133 703.669l204.495-204.497-204.495-204.497v114.948c0 11.153-8.643 20.433-19.804 21.247 0 0-52.983 3.826-109.149-0.57-39.509-3.094-80.385-10.502-107.305-24.992-67.831-36.634-122.471-103.063-159.582-159.071 5.586 31.505 13.254 66.917 23.654 101.679 19.165 64.15 46.806 126.915 90.133 155.326 111.93 73.43 259.423 64.231 259.423 64.231 5.871-0.326 11.63 1.791 15.915 5.78 4.285 4.070 6.715 9.688 6.715 15.549v114.867z" />
<glyph unicode="&#xe911;" glyph-name="bold" d="M261.118 73.818v746.667h237.867c71.467 0 129.067-16 170.667-46.933 42.667-32 64-72.533 64-123.733 0-42.667-11.733-78.933-36.267-109.867-23.467-32-56.533-54.4-99.2-67.2v-2.133c51.2-5.333 92.8-24.533 122.667-56.533 30.933-33.067 46.933-74.667 46.933-125.867 0-64-25.6-115.2-75.733-154.667s-114.133-59.733-190.933-59.733h-240zM384.852 721.285v-212.267h80c43.733 0 76.8 9.6 101.333 29.867s37.333 49.067 37.333 86.4c0 64-42.667 96-128 96h-90.667zM384.852 408.751v-235.734h105.6c46.933 0 82.133 10.667 107.733 32 24.533 21.333 37.333 50.133 37.333 88.533 0 76.8-53.333 115.2-161.067 115.2h-89.6z" />
<glyph unicode="&#xe912;" glyph-name="italic" d="M516.566 241.067c-5.333-20.267-7.467-36.267-9.6-49.067-1.067-11.733-2.133-22.4-2.133-32 0-16 4.267-26.667 11.733-33.067 8.533-6.4 21.333-10.667 39.467-11.733l-5.333-25.6h-208l5.333 25.6c12.8 2.133 23.467 5.333 29.867 9.6 6.4 5.333 11.733 11.733 16 20.267 5.333 8.533 8.533 18.133 12.8 29.867 4.267 12.8 9.6 35.2 17.067 70.4l88.533 400c3.2 16 6.4 32 8.533 46.933s3.2 26.667 3.2 37.333c0 16-4.267 27.733-12.8 34.133s-21.333 10.667-38.4 11.733l5.333 25.6h209.067l-6.4-25.6c-12.8-3.2-22.4-6.4-27.733-9.6-6.4-3.2-10.667-8.533-16-16-4.267-6.4-9.6-18.133-13.867-32-4.267-14.933-10.667-39.467-18.133-72.533l-88.533-404.267z" />
<glyph unicode="&#xe913;" glyph-name="DropdownUpArrow" d="M543.665 663.388l409.6-358.4c19.971-17.477 21.998-47.88 4.524-67.853-17.477-19.971-47.88-21.998-67.853-4.524l-409.6 358.4c-19.971 17.477-21.998 47.88-4.524 67.853 17.477 19.971 47.88 21.998 67.853 4.524zM543.665 591.012l-409.6-358.4c-19.973-17.475-50.376-15.447-67.853 4.524-17.475 19.973-15.447 50.376 4.524 67.853l409.6 358.4c19.973 17.475 50.376 15.447 67.853-4.524 17.475-19.973 15.447-50.376-4.524-67.853z" />
<glyph unicode="&#xe914;" glyph-name="DiamondList" d="M132.27 931.181l95.721-96.636-95.721-96.636-95.721 96.636 95.721 96.636zM246.937 815.778l-95.721-96.636c-5.008-5.056-11.83-7.9-18.946-7.898-7.117-0.002-13.939 2.843-18.946 7.898l-95.721 96.636c-10.295 10.393-10.295 27.14 0 37.533l95.721 96.636c5.008 5.056 11.83 7.9 18.946 7.898 7.117 0.002 13.939-2.843 18.946-7.898l95.721-96.636c10.295-10.393 10.295-27.14 0-37.533zM74.084 834.545l58.186-58.742 58.186 58.742-58.186 58.742-58.186-58.742zM132.27 544.636l95.721-96.636-95.721-96.636-95.721 96.636 95.721 96.636zM246.937 429.234l-95.721-96.636c-5.008-5.056-11.83-7.9-18.946-7.898-7.117-0.002-13.939 2.843-18.946 7.898l-95.721 96.636c-10.295 10.393-10.295 27.14 0 37.533l95.721 96.636c5.008 5.056 11.83 7.9 18.946 7.898 7.117 0.002 13.939-2.843 18.946-7.898l95.721-96.636c10.295-10.393 10.295-27.14 0-37.533zM74.084 448l58.186-58.742 58.186 58.742-58.186 58.742-58.186-58.742zM132.27 158.091l95.721-96.636-95.721-96.636-95.721 96.636 95.721 96.636zM246.937 42.689l-95.721-96.636c-5.008-5.056-11.83-7.9-18.946-7.898-7.117-0.002-13.939 2.843-18.946 7.898l-95.721 96.636c-10.295 10.393-10.295 27.14 0 37.533l95.721 96.636c5.008 5.056 11.83 7.9 18.946 7.898 7.117 0.002 13.939-2.843 18.946-7.898l95.721-96.636c10.295-10.393 10.295-27.14 0-37.533zM74.084 61.455l58.186-58.742 58.186 58.742-58.186 58.742-58.186-58.742zM961.854 882.543c26.492 0 48.001-21.508 48.001-47.999s-21.509-47.999-48.001-47.999h-510.513c-26.492 0-48.001 21.508-48.001 47.999s21.509 47.999 48.001 47.999h510.513zM961.854 496c26.492 0 48.001-21.508 48.001-47.999s-21.509-47.999-48.001-47.999h-510.513c-26.492 0-48.001 21.508-48.001 47.999s21.509 47.999 48.001 47.999h510.513zM961.854 109.456c26.492 0 48.001-21.508 48.001-47.999s-21.509-47.999-48.001-47.999h-510.513c-26.492 0-48.001 21.508-48.001 47.999s21.509 47.999 48.001 47.999h510.513z" />
<glyph unicode="&#xe915;" glyph-name="DiamondGrid" d="M504.919 188.675l110.422-110.422-110.278-110.278-110.422 110.422 110.278 110.278zM647.191 64.686l-110.278-110.278c-13.702-13.702-35.93-13.687-49.65 0.032l-110.422 110.422c-13.72 13.72-13.734 35.948-0.032 49.65l110.278 110.278c13.702 13.702 35.93 13.687 49.65-0.032l110.422-110.422c13.72-13.72 13.734-35.948 0.032-49.65zM451.3 89.639l60.74-60.74 60.66 60.66-60.74 60.74-60.66-60.66zM323.778 369.967l94.648-94.648-94.524-94.524-94.648 94.648 94.524 94.524zM443.266 250.479l-94.524-94.524c-13.701-13.701-35.929-13.687-49.648 0.032l-94.648 94.648c-13.719 13.719-13.734 35.947-0.032 49.648l94.524 94.524c13.701 13.701 35.929 13.687 49.648-0.032l94.648-94.648c13.719-13.719 13.734-35.947 0.032-49.648zM278.902 275.411l44.967-44.967 44.908 44.908-44.967 44.967-44.908-44.908zM134.481 559.262l94.648-94.648-94.524-94.524-94.648 94.648 94.524 94.524zM253.969 439.775l-94.524-94.524c-13.701-13.701-35.929-13.687-49.648 0.032l-94.648 94.648c-13.719 13.719-13.734 35.947-0.032 49.648l94.524 94.524c13.701 13.701 35.929 13.687 49.648-0.032l94.648-94.648c13.719-13.719 13.734-35.947 0.032-49.648zM89.606 464.706l44.967-44.967 44.908 44.908-44.967 44.967-44.908-44.908zM696.271 369.723l94.648-94.648-94.524-94.524-94.648 94.648 94.524 94.524zM815.758 250.236l-94.524-94.524c-13.701-13.701-35.929-13.687-49.648 0.032l-94.648 94.648c-13.719 13.719-13.734 35.947-0.032 49.648l94.524 94.524c13.701 13.701 35.929 13.687 49.648-0.032l94.648-94.648c13.719-13.719 13.734-35.947 0.032-49.648zM651.395 275.167l44.967-44.967 44.908 44.908-44.967 44.967-44.908-44.908zM512.824 559.015l94.648-94.648-94.524-94.524-94.648 94.648 94.524 94.524zM632.311 439.527l-94.524-94.524c-13.701-13.701-35.929-13.687-49.648 0.032l-94.648 94.648c-13.719 13.719-13.734 35.947-0.032 49.648l94.524 94.524c13.701 13.701 35.929 13.687 49.648-0.032l94.648-94.648c13.719-13.719 13.734-35.947 0.032-49.648zM467.948 464.458l44.967-44.967 44.908 44.908-44.967 44.967-44.908-44.908zM323.53 748.31l94.648-94.648-94.524-94.524-94.648 94.648 94.524 94.524zM443.017 628.822l-94.524-94.524c-13.701-13.701-35.929-13.687-49.648 0.032l-94.648 94.648c-13.719 13.719-13.734 35.947-0.032 49.648l94.524 94.524c13.701 13.701 35.929 13.687 49.648-0.032l94.648-94.648c13.719-13.719 13.734-35.947 0.032-49.648zM278.654 653.754l44.967-44.967 44.908 44.908-44.967 44.967-44.908-44.908zM891.166 558.767l94.648-94.648-94.524-94.524-94.648 94.648 94.524 94.524zM1010.654 439.279l-94.524-94.524c-13.701-13.701-35.929-13.687-49.648 0.032l-94.648 94.648c-13.719 13.719-13.734 35.947-0.032 49.648l94.524 94.524c13.701 13.701 35.929 13.687 49.648-0.032l94.648-94.648c13.719-13.719 13.734-35.947 0.032-49.648zM846.29 464.211l44.967-44.967 44.908 44.908-44.967 44.967-44.908-44.908zM701.872 748.062l94.648-94.648-94.524-94.524-94.648 94.648 94.524 94.524zM821.36 628.574l-94.524-94.524c-13.701-13.701-35.929-13.687-49.648 0.032l-94.648 94.648c-13.719 13.719-13.734 35.947-0.032 49.648l94.524 94.524c13.701 13.701 35.929 13.687 49.648-0.032l94.648-94.648c13.719-13.719 13.734-35.947 0.032-49.648zM656.996 653.506l44.967-44.967 44.908 44.908-44.967 44.967-44.908-44.908zM511.938 916.347l94.648-94.648-94.524-94.524-94.648 94.648 94.524 94.524zM631.426 796.859l-94.524-94.524c-13.701-13.701-35.929-13.687-49.648 0.032l-94.648 94.648c-13.719 13.719-13.734 35.947-0.032 49.648l94.524 94.524c13.701 13.701 35.929 13.687 49.648-0.032l94.648-94.648c13.719-13.719 13.734-35.947 0.032-49.648zM467.062 821.79l44.967-44.967 44.908 44.908-44.967 44.967-44.908-44.908z" />
</font>
</defs>
</svg>
